<?xml version="1.0" encoding="UTF-8" standalone="no"?><svg xmlns="http://www.w3.org/2000/svg" xmlns:xlink="http://www.w3.org/1999/xlink" contentScriptType="application/ecmascript" contentStyleType="text/css" height="1463px" preserveAspectRatio="none" style="width:1109px;height:1463px;background:#FFFFFF;" version="1.1" viewBox="0 0 1109 1463" width="1109px" zoomAndPan="magnify"><defs><filter height="300%" id="ft48nfabu8z56" width="300%" x="-1" y="-1"><feGaussianBlur result="blurOut" stdDeviation="2.0"/><feColorMatrix in="blurOut" result="blurOut2" type="matrix" values="0 0 0 0 0 0 0 0 0 0 0 0 0 0 0 0 0 0 .4 0"/><feOffset dx="4.0" dy="4.0" in="blurOut2" result="blurOut3"/><feBlend in="SourceGraphic" in2="blurOut3" mode="normal"/></filter></defs><g><rect fill="#FEFECE" filter="url(#ft48nfabu8z56)" height="34.1328" style="stroke:#A80036;stroke-width:1.5;" width="32" x="514.4247" y="10"/><text fill="#000000" font-family="sans-serif" font-size="12" lengthAdjust="spacing" textLength="12" x="524.4247" y="31.6016">...</text><line style="stroke:#A80036;stroke-width:1.5;" x1="530.4247" x2="530.4247" y1="44.1328" y2="64.1328"/><line style="stroke:#A80036;stroke-width:1.5;" x1="30.0036" x2="30.0036" y1="64.1328" y2="84.1328"/><rect fill="#87CEEB" filter="url(#ft48nfabu8z56)" height="34.1328" style="stroke:#A80036;stroke-width:1.5;" width="40.0072" x="10" y="84.1328"/><text fill="#000000" font-family="sans-serif" font-size="12" lengthAdjust="spacing" textLength="20.0072" x="20" y="105.7344">كلاب</text><line style="stroke:#A80036;stroke-width:1.5;" x1="30.0036" x2="40.0036" y1="150.332" y2="150.332"/><rect fill="#FFC0CB" filter="url(#ft48nfabu8z56)" height="34.1328" style="stroke:#A80036;stroke-width:1.5;" width="43.8264" x="40.0036" y="133.2656"/><text fill="#000000" font-family="sans-serif" font-size="12" lengthAdjust="spacing" textLength="23.8264" x="50.0036" y="154.8672">قصي</text><line style="stroke:#A80036;stroke-width:1.5;" x1="61.9168" x2="71.9168" y1="199.4648" y2="199.4648"/><rect fill="#FEFECE" filter="url(#ft48nfabu8z56)" height="34.1328" style="stroke:#A80036;stroke-width:1.5;" width="61.8311" x="71.9168" y="182.3984"/><text fill="#000000" font-family="sans-serif" font-size="12" lengthAdjust="spacing" textLength="41.8311" x="81.9168" y="204">عبد العزى</text><line style="stroke:#A80036;stroke-width:1.5;" x1="102.8324" x2="112.8324" y1="248.5977" y2="248.5977"/><rect fill="#FEFECE" filter="url(#ft48nfabu8z56)" height="34.1328" style="stroke:#A80036;stroke-width:1.5;" width="37.2676" x="112.8324" y="231.5313"/><text fill="#000000" font-family="sans-serif" font-size="12" lengthAdjust="spacing" textLength="17.2676" x="122.8324" y="253.1328">أسد</text><line style="stroke:#A80036;stroke-width:1.5;" x1="131.4661" x2="141.4661" y1="297.7305" y2="297.7305"/><rect fill="#FEFECE" filter="url(#ft48nfabu8z56)" height="34.1328" style="stroke:#A80036;stroke-width:1.5;" width="43.3056" x="141.4661" y="280.6641"/><text fill="#000000" font-family="sans-serif" font-size="12" lengthAdjust="spacing" textLength="23.3056" x="151.4661" y="302.2656">خُوَيلد</text><line style="stroke:#A80036;stroke-width:1.5;" x1="163.1189" x2="173.1189" y1="346.8633" y2="346.8633"/><rect fill="#FEFECE" filter="url(#ft48nfabu8z56)" height="34.1328" style="stroke:#A80036;stroke-width:1.5;" width="44.4719" x="173.1189" y="329.7969"/><text fill="#000000" font-family="sans-serif" font-size="12" lengthAdjust="spacing" textLength="24.4719" x="183.1189" y="351.3984">العوّام</text><line style="stroke:#A80036;stroke-width:1.5;" x1="195.3549" x2="205.3549" y1="395.9961" y2="395.9961"/><rect fill="#FEFECE" filter="url(#ft48nfabu8z56)" height="34.1328" style="stroke:#A80036;stroke-width:1.5;" width="43.2079" x="205.3549" y="378.9297"/><text fill="#000000" font-family="sans-serif" font-size="12" lengthAdjust="spacing" textLength="23.2079" x="215.3549" y="400.5313">الزبير</text><line style="stroke:#A80036;stroke-width:1.5;" x1="226.9588" x2="236.9588" y1="445.1289" y2="445.1289"/><rect fill="#FEFECE" filter="url(#ft48nfabu8z56)" height="34.1328" style="stroke:#A80036;stroke-width:1.5;" width="39.4159" x="236.9588" y="428.0625"/><text fill="#000000" font-family="sans-serif" font-size="12" lengthAdjust="spacing" textLength="19.4159" x="246.9588" y="449.6641">عروة</text><line style="stroke:#A80036;stroke-width:1.5;" x1="226.9588" x2="226.9588" y1="413.0625" y2="445.1289"/><line style="stroke:#A80036;stroke-width:1.5;" x1="195.3549" x2="195.3549" y1="363.9297" y2="395.9961"/><line style="stroke:#A80036;stroke-width:1.5;" x1="163.1189" x2="163.1189" y1="314.7969" y2="346.8633"/><line style="stroke:#A80036;stroke-width:1.5;" x1="131.4661" x2="131.4661" y1="265.6641" y2="297.7305"/><line style="stroke:#A80036;stroke-width:1.5;" x1="102.8324" x2="102.8324" y1="216.5313" y2="248.5977"/><line style="stroke:#A80036;stroke-width:1.5;" x1="61.9168" x2="71.9168" y1="494.2617" y2="494.2617"/><rect fill="#FEFECE" filter="url(#ft48nfabu8z56)" height="34.1328" style="stroke:#A80036;stroke-width:1.5;" width="59.5961" x="71.9168" y="477.1953"/><text fill="#000000" font-family="sans-serif" font-size="12" lengthAdjust="spacing" textLength="39.5961" x="81.9168" y="498.7969">عبد مناف</text><line style="stroke:#A80036;stroke-width:1.5;" x1="101.7148" x2="111.7148" y1="543.3945" y2="543.3945"/><rect fill="#FEFECE" filter="url(#ft48nfabu8z56)" height="34.1328" style="stroke:#A80036;stroke-width:1.5;" width="43.4737" x="111.7148" y="526.3281"/><text fill="#000000" font-family="sans-serif" font-size="12" lengthAdjust="spacing" textLength="23.4737" x="121.7148" y="547.9297">هشام</text><line style="stroke:#A80036;stroke-width:1.5;" x1="133.4517" x2="143.4517" y1="592.5273" y2="592.5273"/><rect fill="#FEFECE" filter="url(#ft48nfabu8z56)" height="34.1328" style="stroke:#A80036;stroke-width:1.5;" width="63.5129" x="143.4517" y="575.4609"/><text fill="#000000" font-family="sans-serif" font-size="12" lengthAdjust="spacing" textLength="43.5129" x="153.4517" y="597.0625">عبد المطّلب</text><line style="stroke:#A80036;stroke-width:1.5;" x1="175.2081" x2="185.2081" y1="641.6602" y2="641.6602"/><rect fill="#FEFECE" filter="url(#ft48nfabu8z56)" height="34.1328" style="stroke:#A80036;stroke-width:1.5;" width="49.7281" x="185.2081" y="624.5938"/><text fill="#000000" font-family="sans-serif" font-size="12" lengthAdjust="spacing" textLength="29.7281" x="195.2081" y="646.1953">عبد الله</text><line style="stroke:#A80036;stroke-width:1.5;" x1="210.0722" x2="220.0722" y1="690.793" y2="690.793"/><rect fill="#FEFECE" filter="url(#ft48nfabu8z56)" height="34.1328" style="stroke:#A80036;stroke-width:1.5;" width="42.8011" x="220.0722" y="673.7266"/><text fill="#000000" font-family="sans-serif" font-size="12" lengthAdjust="spacing" textLength="22.8011" x="230.0722" y="695.3281">محمْد</text><line style="stroke:#A80036;stroke-width:1.5;" x1="210.0722" x2="210.0722" y1="658.7266" y2="690.793"/><line style="stroke:#A80036;stroke-width:1.5;" x1="175.2081" x2="175.2081" y1="609.5938" y2="641.6602"/><line style="stroke:#A80036;stroke-width:1.5;" x1="133.4517" x2="133.4517" y1="560.4609" y2="592.5273"/><line style="stroke:#A80036;stroke-width:1.5;" x1="101.7148" x2="111.7148" y1="739.9258" y2="739.9258"/><rect fill="#FEFECE" filter="url(#ft48nfabu8z56)" height="34.1328" style="stroke:#A80036;stroke-width:1.5;" width="62.8294" x="111.7148" y="722.8594"/><text fill="#000000" font-family="sans-serif" font-size="12" lengthAdjust="spacing" textLength="42.8294" x="121.7148" y="744.4609">عبد شمس</text><line style="stroke:#A80036;stroke-width:1.5;" x1="143.1295" x2="153.1295" y1="789.0586" y2="789.0586"/><rect fill="#FEFECE" filter="url(#ft48nfabu8z56)" height="34.1328" style="stroke:#A80036;stroke-width:1.5;" width="36.2043" x="153.1295" y="771.9922"/><text fill="#000000" font-family="sans-serif" font-size="12" lengthAdjust="spacing" textLength="16.2043" x="163.1295" y="793.5938">أمية</text><line style="stroke:#A80036;stroke-width:1.5;" x1="171.2317" x2="181.2317" y1="838.1914" y2="838.1914"/><rect fill="#FEFECE" filter="url(#ft48nfabu8z56)" height="34.1328" style="stroke:#A80036;stroke-width:1.5;" width="67.4622" x="181.2317" y="821.125"/><text fill="#000000" font-family="sans-serif" font-size="12" lengthAdjust="spacing" textLength="47.4622" x="191.2317" y="842.7266">أبي العاص</text><line style="stroke:#A80036;stroke-width:1.5;" x1="214.9628" x2="224.9628" y1="887.3242" y2="887.3242"/><rect fill="#FEFECE" filter="url(#ft48nfabu8z56)" height="34.1328" style="stroke:#A80036;stroke-width:1.5;" width="43.9349" x="224.9628" y="870.2578"/><text fill="#000000" font-family="sans-serif" font-size="12" lengthAdjust="spacing" textLength="23.9349" x="234.9628" y="891.8594">الحكم</text><line style="stroke:#A80036;stroke-width:1.5;" x1="246.9302" x2="256.9302" y1="936.457" y2="936.457"/><rect fill="#FEFECE" filter="url(#ft48nfabu8z56)" height="34.1328" style="stroke:#A80036;stroke-width:1.5;" width="44.7811" x="256.9302" y="919.3906"/><text fill="#000000" font-family="sans-serif" font-size="12" lengthAdjust="spacing" textLength="24.7811" x="266.9302" y="940.9922">مروان</text><line style="stroke:#A80036;stroke-width:1.5;" x1="279.3208" x2="289.3208" y1="985.5898" y2="985.5898"/><rect fill="#FEFECE" filter="url(#ft48nfabu8z56)" height="34.1328" style="stroke:#A80036;stroke-width:1.5;" width="62.596" x="289.3208" y="968.5234"/><text fill="#000000" font-family="sans-serif" font-size="12" lengthAdjust="spacing" textLength="42.596" x="299.3208" y="990.125">عبد العزيز</text><line style="stroke:#A80036;stroke-width:1.5;" x1="320.6188" x2="330.6188" y1="1034.7227" y2="1034.7227"/><rect fill="#FEFECE" filter="url(#ft48nfabu8z56)" height="34.1328" style="stroke:#A80036;stroke-width:1.5;" width="35.7703" x="330.6188" y="1017.6563"/><text fill="#000000" font-family="sans-serif" font-size="12" lengthAdjust="spacing" textLength="15.7703" x="340.6188" y="1039.2578">عمر</text><line style="stroke:#A80036;stroke-width:1.5;" x1="320.6188" x2="320.6188" y1="1002.6563" y2="1034.7227"/><line style="stroke:#A80036;stroke-width:1.5;" x1="279.3208" x2="279.3208" y1="953.5234" y2="985.5898"/><line style="stroke:#A80036;stroke-width:1.5;" x1="246.9302" x2="246.9302" y1="904.3906" y2="936.457"/><line style="stroke:#A80036;stroke-width:1.5;" x1="214.9628" x2="214.9628" y1="855.2578" y2="887.3242"/><line style="stroke:#A80036;stroke-width:1.5;" x1="171.2317" x2="171.2317" y1="806.125" y2="838.1914"/><line style="stroke:#A80036;stroke-width:1.5;" x1="143.1295" x2="143.1295" y1="756.9922" y2="789.0586"/><line style="stroke:#A80036;stroke-width:1.5;" x1="101.7148" x2="101.7148" y1="511.3281" y2="739.9258"/><line style="stroke:#A80036;stroke-width:1.5;" x1="61.9168" x2="61.9168" y1="167.3984" y2="494.2617"/><line style="stroke:#A80036;stroke-width:1.5;" x1="30.0036" x2="40.0036" y1="1083.8555" y2="1083.8555"/><rect fill="#FEFECE" filter="url(#ft48nfabu8z56)" height="34.1328" style="stroke:#A80036;stroke-width:1.5;" width="40.235" x="40.0036" y="1066.7891"/><text fill="#000000" font-family="sans-serif" font-size="12" lengthAdjust="spacing" textLength="20.235" x="50.0036" y="1088.3906">زهرة</text><line style="stroke:#A80036;stroke-width:1.5;" x1="60.1211" x2="70.1211" y1="1132.9883" y2="1132.9883"/><rect fill="#FEFECE" filter="url(#ft48nfabu8z56)" height="34.1328" style="stroke:#A80036;stroke-width:1.5;" width="49.7558" x="70.1211" y="1115.9219"/><text fill="#000000" font-family="sans-serif" font-size="12" lengthAdjust="spacing" textLength="29.7558" x="80.1211" y="1137.5234">الحارث</text><line style="stroke:#A80036;stroke-width:1.5;" x1="94.999" x2="104.999" y1="1182.1211" y2="1182.1211"/><rect fill="#FEFECE" filter="url(#ft48nfabu8z56)" height="34.1328" style="stroke:#A80036;stroke-width:1.5;" width="49.7281" x="104.999" y="1165.0547"/><text fill="#000000" font-family="sans-serif" font-size="12" lengthAdjust="spacing" textLength="29.7281" x="114.999" y="1186.6563">عبد الله</text><line style="stroke:#A80036;stroke-width:1.5;" x1="129.8631" x2="139.8631" y1="1231.2539" y2="1231.2539"/><rect fill="#FEFECE" filter="url(#ft48nfabu8z56)" height="34.1328" style="stroke:#A80036;stroke-width:1.5;" width="45.1392" x="139.8631" y="1214.1875"/><text fill="#000000" font-family="sans-serif" font-size="12" lengthAdjust="spacing" textLength="25.1392" x="149.8631" y="1235.7891">شهاب</text><line style="stroke:#A80036;stroke-width:1.5;" x1="162.4327" x2="172.4327" y1="1280.3867" y2="1280.3867"/><rect fill="#FEFECE" filter="url(#ft48nfabu8z56)" height="34.1328" style="stroke:#A80036;stroke-width:1.5;" width="49.7281" x="172.4327" y="1263.3203"/><text fill="#000000" font-family="sans-serif" font-size="12" lengthAdjust="spacing" textLength="29.7281" x="182.4327" y="1284.9219">عبد الله</text><line style="stroke:#A80036;stroke-width:1.5;" x1="197.2967" x2="207.2967" y1="1329.5195" y2="1329.5195"/><rect fill="#FEFECE" filter="url(#ft48nfabu8z56)" height="34.1328" style="stroke:#A80036;stroke-width:1.5;" width="53.2869" x="207.2967" y="1312.4531"/><text fill="#000000" font-family="sans-serif" font-size="12" lengthAdjust="spacing" textLength="33.2869" x="217.2967" y="1334.0547">عبيد الله</text><line style="stroke:#A80036;stroke-width:1.5;" x1="233.9402" x2="243.9402" y1="1378.6523" y2="1378.6523"/><rect fill="#FEFECE" filter="url(#ft48nfabu8z56)" height="34.1328" style="stroke:#A80036;stroke-width:1.5;" width="41.7812" x="243.9402" y="1361.5859"/><text fill="#000000" font-family="sans-serif" font-size="12" lengthAdjust="spacing" textLength="21.7812" x="253.9402" y="1383.1875">مسلم</text><line style="stroke:#A80036;stroke-width:1.5;" x1="264.8307" x2="274.8307" y1="1427.7852" y2="1427.7852"/><rect fill="#FEFECE" filter="url(#ft48nfabu8z56)" height="34.1328" style="stroke:#A80036;stroke-width:1.5;" width="42.8011" x="274.8307" y="1410.7188"/><text fill="#000000" font-family="sans-serif" font-size="12" lengthAdjust="spacing" textLength="22.8011" x="284.8307" y="1432.3203">محمد</text><line style="stroke:#A80036;stroke-width:1.5;" x1="264.8307" x2="264.8307" y1="1395.7188" y2="1427.7852"/><line style="stroke:#A80036;stroke-width:1.5;" x1="233.9402" x2="233.9402" y1="1346.5859" y2="1378.6523"/><line style="stroke:#A80036;stroke-width:1.5;" x1="197.2967" x2="197.2967" y1="1297.4531" y2="1329.5195"/><line style="stroke:#A80036;stroke-width:1.5;" x1="162.4327" x2="162.4327" y1="1248.3203" y2="1280.3867"/><line style="stroke:#A80036;stroke-width:1.5;" x1="129.8631" x2="129.8631" y1="1199.1875" y2="1231.2539"/><line style="stroke:#A80036;stroke-width:1.5;" x1="94.999" x2="94.999" y1="1150.0547" y2="1182.1211"/><line style="stroke:#A80036;stroke-width:1.5;" x1="60.1211" x2="60.1211" y1="1100.9219" y2="1132.9883"/><line style="stroke:#A80036;stroke-width:1.5;" x1="30.0036" x2="30.0036" y1="118.2656" y2="1083.8555"/><line style="stroke:#A80036;stroke-width:1.5;" x1="406.8131" x2="406.8131" y1="64.1328" y2="84.1328"/><rect fill="#FEFECE" filter="url(#ft48nfabu8z56)" height="34.1328" style="stroke:#A80036;stroke-width:1.5;" width="40.8481" x="386.3891" y="84.1328"/><text fill="#000000" font-family="sans-serif" font-size="12" lengthAdjust="spacing" textLength="20.8481" x="396.3891" y="105.7344">ثقيف</text><line style="stroke:#A80036;stroke-width:1.5;" x1="406.8131" x2="416.8131" y1="150.332" y2="150.332"/><rect fill="#FEFECE" filter="url(#ft48nfabu8z56)" height="34.1328" style="stroke:#A80036;stroke-width:1.5;" width="39.698" x="416.8131" y="133.2656"/><text fill="#000000" font-family="sans-serif" font-size="12" lengthAdjust="spacing" textLength="19.698" x="426.8131" y="154.8672">عوف</text><line style="stroke:#A80036;stroke-width:1.5;" x1="436.6621" x2="446.6621" y1="199.4648" y2="199.4648"/><rect fill="#FEFECE" filter="url(#ft48nfabu8z56)" height="34.1328" style="stroke:#A80036;stroke-width:1.5;" width="38.8463" x="446.6621" y="182.3984"/><text fill="#000000" font-family="sans-serif" font-size="12" lengthAdjust="spacing" textLength="18.8463" x="456.6621" y="204">سعد</text><line style="stroke:#A80036;stroke-width:1.5;" x1="466.0853" x2="476.0853" y1="248.5977" y2="248.5977"/><rect fill="#FEFECE" filter="url(#ft48nfabu8z56)" height="34.1328" style="stroke:#A80036;stroke-width:1.5;" width="40.4792" x="476.0853" y="231.5313"/><text fill="#000000" font-family="sans-serif" font-size="12" lengthAdjust="spacing" textLength="20.4792" x="486.0853" y="253.1328">عمرو</text><line style="stroke:#A80036;stroke-width:1.5;" x1="496.3248" x2="506.3248" y1="297.7305" y2="297.7305"/><rect fill="#FEFECE" filter="url(#ft48nfabu8z56)" height="34.1328" style="stroke:#A80036;stroke-width:1.5;" width="38.0976" x="506.3248" y="280.6641"/><text fill="#000000" font-family="sans-serif" font-size="12" lengthAdjust="spacing" textLength="18.0976" x="516.3248" y="302.2656">كعب</text><line style="stroke:#A80036;stroke-width:1.5;" x1="525.3736" x2="535.3736" y1="346.8633" y2="346.8633"/><rect fill="#FEFECE" filter="url(#ft48nfabu8z56)" height="34.1328" style="stroke:#A80036;stroke-width:1.5;" width="37.9728" x="535.3736" y="329.7969"/><text fill="#000000" font-family="sans-serif" font-size="12" lengthAdjust="spacing" textLength="17.9728" x="545.3736" y="351.3984">مالك</text><line style="stroke:#A80036;stroke-width:1.5;" x1="554.3601" x2="564.3601" y1="395.9961" y2="395.9961"/><rect fill="#FEFECE" filter="url(#ft48nfabu8z56)" height="34.1328" style="stroke:#A80036;stroke-width:1.5;" width="41.6021" x="564.3601" y="378.9297"/><text fill="#000000" font-family="sans-serif" font-size="12" lengthAdjust="spacing" textLength="21.6021" x="574.3601" y="400.5313">معتب</text><line style="stroke:#A80036;stroke-width:1.5;" x1="585.1611" x2="595.1611" y1="445.1289" y2="445.1289"/><rect fill="#FEFECE" filter="url(#ft48nfabu8z56)" height="34.1328" style="stroke:#A80036;stroke-width:1.5;" width="48.7739" x="595.1611" y="428.0625"/><text fill="#000000" font-family="sans-serif" font-size="12" lengthAdjust="spacing" textLength="28.7739" x="605.1611" y="449.6641">مسعود</text><line style="stroke:#A80036;stroke-width:1.5;" x1="619.5481" x2="629.5481" y1="494.2617" y2="494.2617"/><rect fill="#FEFECE" filter="url(#ft48nfabu8z56)" height="34.1328" style="stroke:#A80036;stroke-width:1.5;" width="58.5274" x="629.5481" y="477.1953"/><text fill="#000000" font-family="sans-serif" font-size="12" lengthAdjust="spacing" textLength="38.5274" x="639.5481" y="498.7969">أبي عامر</text><line style="stroke:#A80036;stroke-width:1.5;" x1="658.8118" x2="668.8118" y1="543.3945" y2="543.3945"/><rect fill="#FEFECE" filter="url(#ft48nfabu8z56)" height="34.1328" style="stroke:#A80036;stroke-width:1.5;" width="41.3797" x="668.8118" y="526.3281"/><text fill="#000000" font-family="sans-serif" font-size="12" lengthAdjust="spacing" textLength="21.3797" x="678.8118" y="547.9297">شعبة</text><line style="stroke:#A80036;stroke-width:1.5;" x1="689.5016" x2="699.5016" y1="592.5273" y2="592.5273"/><rect fill="#FEFECE" filter="url(#ft48nfabu8z56)" height="34.1328" style="stroke:#A80036;stroke-width:1.5;" width="45.7305" x="699.5016" y="575.4609"/><text fill="#000000" font-family="sans-serif" font-size="12" lengthAdjust="spacing" textLength="25.7305" x="709.5016" y="597.0625">المغيرة</text><line style="stroke:#A80036;stroke-width:1.5;" x1="689.5016" x2="689.5016" y1="560.4609" y2="592.5273"/><line style="stroke:#A80036;stroke-width:1.5;" x1="658.8118" x2="658.8118" y1="511.3281" y2="543.3945"/><line style="stroke:#A80036;stroke-width:1.5;" x1="619.5481" x2="619.5481" y1="462.1953" y2="494.2617"/><line style="stroke:#A80036;stroke-width:1.5;" x1="585.1611" x2="585.1611" y1="413.0625" y2="445.1289"/><line style="stroke:#A80036;stroke-width:1.5;" x1="554.3601" x2="554.3601" y1="363.9297" y2="395.9961"/><line style="stroke:#A80036;stroke-width:1.5;" x1="525.3736" x2="525.3736" y1="314.7969" y2="346.8633"/><line style="stroke:#A80036;stroke-width:1.5;" x1="496.3248" x2="496.3248" y1="265.6641" y2="297.7305"/><line style="stroke:#A80036;stroke-width:1.5;" x1="466.0853" x2="466.0853" y1="216.5313" y2="248.5977"/><line style="stroke:#A80036;stroke-width:1.5;" x1="436.6621" x2="436.6621" y1="167.3984" y2="199.4648"/><line style="stroke:#A80036;stroke-width:1.5;" x1="406.8131" x2="406.8131" y1="118.2656" y2="150.332"/><line style="stroke:#A80036;stroke-width:1.5;" x1="790.4681" x2="790.4681" y1="64.1328" y2="84.1328"/><rect fill="#FEFECE" filter="url(#ft48nfabu8z56)" height="34.1328" style="stroke:#A80036;stroke-width:1.5;" width="50.4719" x="765.2321" y="84.1328"/><text fill="#000000" font-family="sans-serif" font-size="12" lengthAdjust="spacing" textLength="30.4719" x="775.2321" y="105.7344">الخزرج</text><line style="stroke:#A80036;stroke-width:1.5;" x1="790.4681" x2="800.4681" y1="150.332" y2="150.332"/><rect fill="#FEFECE" filter="url(#ft48nfabu8z56)" height="34.1328" style="stroke:#A80036;stroke-width:1.5;" width="49.7558" x="800.4681" y="133.2656"/><text fill="#000000" font-family="sans-serif" font-size="12" lengthAdjust="spacing" textLength="29.7558" x="810.4681" y="154.8672">الحارث</text><line style="stroke:#A80036;stroke-width:1.5;" x1="825.346" x2="835.346" y1="199.4648" y2="199.4648"/><rect fill="#FEFECE" filter="url(#ft48nfabu8z56)" height="34.1328" style="stroke:#A80036;stroke-width:1.5;" width="39.698" x="835.346" y="182.3984"/><text fill="#000000" font-family="sans-serif" font-size="12" lengthAdjust="spacing" textLength="19.698" x="845.346" y="204">عوف</text><line style="stroke:#A80036;stroke-width:1.5;" x1="855.195" x2="865.195" y1="248.5977" y2="248.5977"/><rect fill="#FEFECE" filter="url(#ft48nfabu8z56)" height="34.1328" style="stroke:#A80036;stroke-width:1.5;" width="44.8734" x="865.195" y="231.5313"/><text fill="#000000" font-family="sans-serif" font-size="12" lengthAdjust="spacing" textLength="24.8734" x="875.195" y="253.1328">خُدارة</text><line style="stroke:#A80036;stroke-width:1.5;" x1="887.6317" x2="897.6317" y1="297.7305" y2="297.7305"/><rect fill="#FEFECE" filter="url(#ft48nfabu8z56)" height="34.1328" style="stroke:#A80036;stroke-width:1.5;" width="40.2242" x="897.6317" y="280.6641"/><text fill="#000000" font-family="sans-serif" font-size="12" lengthAdjust="spacing" textLength="20.2242" x="907.6317" y="302.2656">عطية</text><line style="stroke:#A80036;stroke-width:1.5;" x1="917.7438" x2="927.7438" y1="346.8633" y2="346.8633"/><rect fill="#FEFECE" filter="url(#ft48nfabu8z56)" height="34.1328" style="stroke:#A80036;stroke-width:1.5;" width="47.103" x="927.7438" y="329.7969"/><text fill="#000000" font-family="sans-serif" font-size="12" lengthAdjust="spacing" textLength="27.103" x="937.7438" y="351.3984">عسيرة</text><line style="stroke:#A80036;stroke-width:1.5;" x1="951.2953" x2="961.2953" y1="395.9961" y2="395.9961"/><rect fill="#FEFECE" filter="url(#ft48nfabu8z56)" height="34.1328" style="stroke:#A80036;stroke-width:1.5;" width="45.0307" x="961.2953" y="378.9297"/><text fill="#000000" font-family="sans-serif" font-size="12" lengthAdjust="spacing" textLength="25.0307" x="971.2953" y="400.5313">أسيرة</text><line style="stroke:#A80036;stroke-width:1.5;" x1="983.8106" x2="993.8106" y1="445.1289" y2="445.1289"/><rect fill="#FEFECE" filter="url(#ft48nfabu8z56)" height="34.1328" style="stroke:#A80036;stroke-width:1.5;" width="38.8679" x="993.8106" y="428.0625"/><text fill="#000000" font-family="sans-serif" font-size="12" lengthAdjust="spacing" textLength="18.8679" x="1003.8106" y="449.6641">ثعلبة</text><line style="stroke:#A80036;stroke-width:1.5;" x1="1013.2446" x2="1023.2446" y1="494.2617" y2="494.2617"/><rect fill="#FEFECE" filter="url(#ft48nfabu8z56)" height="34.1328" style="stroke:#A80036;stroke-width:1.5;" width="40.4792" x="1023.2446" y="477.1953"/><text fill="#000000" font-family="sans-serif" font-size="12" lengthAdjust="spacing" textLength="20.4792" x="1033.2446" y="498.7969">عمرو</text><line style="stroke:#A80036;stroke-width:1.5;" x1="1043.4842" x2="1053.4842" y1="543.3945" y2="543.3945"/><rect fill="#FEFECE" filter="url(#ft48nfabu8z56)" height="34.1328" style="stroke:#A80036;stroke-width:1.5;" width="37.3652" x="1053.4842" y="526.3281"/><text fill="#000000" font-family="sans-serif" font-size="12" lengthAdjust="spacing" textLength="17.3652" x="1063.4842" y="547.9297">عقبة</text><line style="stroke:#A80036;stroke-width:1.5;" x1="1043.4842" x2="1043.4842" y1="511.3281" y2="543.3945"/><line style="stroke:#A80036;stroke-width:1.5;" x1="1013.2446" x2="1013.2446" y1="462.1953" y2="494.2617"/><line style="stroke:#A80036;stroke-width:1.5;" x1="983.8106" x2="983.8106" y1="413.0625" y2="445.1289"/><line style="stroke:#A80036;stroke-width:1.5;" x1="951.2953" x2="951.2953" y1="363.9297" y2="395.9961"/><line style="stroke:#A80036;stroke-width:1.5;" x1="917.7438" x2="917.7438" y1="314.7969" y2="346.8633"/><line style="stroke:#A80036;stroke-width:1.5;" x1="887.6317" x2="887.6317" y1="265.6641" y2="297.7305"/><line style="stroke:#A80036;stroke-width:1.5;" x1="855.195" x2="855.195" y1="216.5313" y2="248.5977"/><line style="stroke:#A80036;stroke-width:1.5;" x1="825.346" x2="825.346" y1="167.3984" y2="199.4648"/><line style="stroke:#A80036;stroke-width:1.5;" x1="790.4681" x2="790.4681" y1="118.2656" y2="150.332"/><line style="stroke:#A80036;stroke-width:1.5;" x1="30.0036" x2="790.4681" y1="64.1328" y2="64.1328"/><!--MD5=[66de171bbab728df0d0e4742c423d80d]
@startwbs

* ...

**[#SkyBlue] كلاب
***[#pink] قصي
**** عبد العزى
***** أسد
****** خُوَيلد
******* العوّام
******** الزبير
********* عروة

**** عبد مناف
***** هشام
****** عبد المطّلب
******* عبد الله
******** محمْد

***** عبد شمس
****** أمية
******* أبي العاص
******** الحكم
********* مروان
********** عبد العزيز
*********** عمر

*** زهرة
**** الحارث
***** عبد الله
****** شهاب
******* عبد الله
******** عبيد الله
********* مسلم
********** محمد

** ثقيف
*** عوف
**** سعد
***** عمرو
****** كعب
******* مالك
******** معتب
********* مسعود
********** أبي عامر
*********** شعبة
************ المغيرة

** الخزرج
*** الحارث
**** عوف
***** خُدارة
****** عطية
******* عسيرة
******** أسيرة
********* ثعلبة
********** عمرو
*********** عقبة

@endwbs

PlantUML version 1.2021.15(Tue Nov 30 11:45:34 EST 2021)
(GPL source distribution)
Java Runtime: OpenJDK Runtime Environment
JVM: OpenJDK 64-Bit Server VM
Default Encoding: UTF-8
Language: en
Country: CA
--></g></svg>