<?xml version="1.0" encoding="UTF-8" standalone="no"?>
<!DOCTYPE svg PUBLIC "-//W3C//DTD SVG 1.1//EN"
 "http://www.w3.org/Graphics/SVG/1.1/DTD/svg11.dtd">
<!-- Generated by graphviz version 2.47.2 (20210527.0053)
 -->
<!-- Title: step2 Pages: 1 -->
<svg width="118pt" height="334pt"
 viewBox="0.00 0.00 117.60 334.00" xmlns="http://www.w3.org/2000/svg" xmlns:xlink="http://www.w3.org/1999/xlink">
<g id="graph0" class="graph" transform="scale(1 1) rotate(0) translate(4 330)">
<title>step2</title>
<polygon fill="white" stroke="transparent" points="-4,4 -4,-330 113.6,-330 113.6,4 -4,4"/>
<!-- رسول الله -->
<g id="node1" class="node">
<title>رسول الله</title>
<ellipse fill="none" stroke="black" cx="60.6" cy="-308" rx="40.09" ry="18"/>
<text text-anchor="middle" x="60.6" y="-304.3" font-family="Times,serif" font-size="14.00">رسول الله</text>
</g>
<!-- عائشة -->
<g id="node2" class="node">
<title>عائشة</title>
<ellipse fill="none" stroke="black" cx="60.6" cy="-235" rx="30.59" ry="18"/>
<text text-anchor="middle" x="60.6" y="-231.3" font-family="Times,serif" font-size="14.00">عائشة</text>
</g>
<!-- رسول الله&#45;&#45;عائشة -->
<g id="edge1" class="edge">
<title>رسول الله&#45;&#45;عائشة</title>
<path fill="none" stroke="blue" d="M60.6,-289.81C60.6,-278.65 60.6,-264.16 60.6,-253.03"/>
<text text-anchor="middle" x="70.6" y="-267.8" font-family="Times,serif" font-size="14.00">زوج</text>
</g>
<!-- أسماء -->
<g id="node3" class="node">
<title>أسماء</title>
<ellipse fill="none" stroke="black" cx="60.6" cy="-164" rx="29.5" ry="18"/>
<text text-anchor="middle" x="60.6" y="-160.3" font-family="Times,serif" font-size="14.00">أسماء</text>
</g>
<!-- عائشة&#45;&#45;أسماء -->
<g id="edge2" class="edge">
<title>عائشة&#45;&#45;أسماء</title>
<path fill="none" stroke="black" d="M60.6,-216.94C60.6,-206.41 60.6,-192.93 60.6,-182.34"/>
<text text-anchor="middle" x="72.1" y="-196.4" font-family="Courier,monospace" font-size="12.00">أخت</text>
</g>
<!-- الزبير -->
<g id="node4" class="node">
<title>الزبير</title>
<ellipse fill="none" stroke="black" cx="28.6" cy="-91" rx="28.7" ry="18"/>
<text text-anchor="middle" x="28.6" y="-87.3" font-family="Times,serif" font-size="14.00">الزبير</text>
</g>
<!-- أسماء&#45;&#45;الزبير -->
<g id="edge3" class="edge">
<title>أسماء&#45;&#45;الزبير</title>
<path fill="none" stroke="blue" d="M53.18,-146.53C48.08,-135.23 41.34,-120.26 36.2,-108.87"/>
<text text-anchor="middle" x="57.6" y="-123.8" font-family="Times,serif" font-size="14.00">زوج</text>
</g>
<!-- عروة -->
<g id="node5" class="node">
<title>عروة</title>
<ellipse fill="none" stroke="black" cx="60.6" cy="-18" rx="27" ry="18"/>
<text text-anchor="middle" x="60.6" y="-14.3" font-family="Times,serif" font-size="14.00">عروة</text>
</g>
<!-- أسماء&#45;&#45;عروة -->
<g id="edge4" class="edge">
<title>أسماء&#45;&#45;عروة</title>
<path fill="none" stroke="green" d="M69.27,-146.79C79.05,-127.38 93.6,-98.5 93.6,-98.5 93.6,-98.5 77.46,-59.14 67.76,-35.47"/>
<text text-anchor="middle" x="101.6" y="-87.3" font-family="Times,serif" font-size="14.00">ابن</text>
</g>
<!-- الزبير&#45;&#45;عروة -->
<g id="edge5" class="edge">
<title>الزبير&#45;&#45;عروة</title>
<path fill="none" stroke="green" d="M36.02,-73.53C41.19,-62.06 48.05,-46.83 53.22,-35.38"/>
<text text-anchor="middle" x="55.6" y="-50.8" font-family="Times,serif" font-size="14.00">ابن</text>
</g>
</g>
</svg>
