<?xml version="1.0" encoding="UTF-8" standalone="no"?>
<!DOCTYPE svg PUBLIC "-//W3C//DTD SVG 1.1//EN"
 "http://www.w3.org/Graphics/SVG/1.1/DTD/svg11.dtd">
<!-- Generated by graphviz version 2.50.0 (20211204.2007)
 -->
<!-- Title: step2 Pages: 1 -->
<svg width="290pt" height="407pt"
 viewBox="0.00 0.00 289.90 407.00" xmlns="http://www.w3.org/2000/svg" xmlns:xlink="http://www.w3.org/1999/xlink">
<g id="graph0" class="graph" transform="scale(1 1) rotate(0) translate(4 403)">
<title>step2</title>
<polygon fill="white" stroke="transparent" points="-4,4 -4,-403 285.9,-403 285.9,4 -4,4"/>
<!-- رسول الله -->
<g id="node1" class="node">
<title>رسول الله</title>
<ellipse fill="none" stroke="black" cx="127.95" cy="-381" rx="40.09" ry="18"/>
<text text-anchor="middle" x="127.95" y="-377.3" font-family="Times,serif" font-size="14.00">رسول الله</text>
</g>
<!-- عائشة -->
<g id="node2" class="node">
<title>عائشة</title>
<ellipse fill="none" stroke="black" cx="151.95" cy="-308" rx="30.59" ry="18"/>
<text text-anchor="middle" x="151.95" y="-304.3" font-family="Times,serif" font-size="14.00">عائشة</text>
</g>
<!-- رسول الله&#45;&#45;عائشة -->
<g id="edge1" class="edge">
<title>رسول الله&#45;&#45;عائشة</title>
<path fill="none" stroke="blue" d="M133.64,-363.17C137.46,-351.86 142.48,-337 146.3,-325.71"/>
<text text-anchor="middle" x="145.95" y="-340.8" font-family="Times,serif" font-size="14.00">زوج</text>
</g>
<!-- أسماء -->
<g id="node4" class="node">
<title>أسماء</title>
<ellipse fill="none" stroke="black" cx="185.95" cy="-237" rx="29.5" ry="18"/>
<text text-anchor="middle" x="185.95" y="-233.3" font-family="Times,serif" font-size="14.00">أسماء</text>
</g>
<!-- عائشة&#45;&#45;أسماء -->
<g id="edge4" class="edge">
<title>عائشة&#45;&#45;أسماء</title>
<path fill="none" stroke="black" d="M160.18,-290.3C165.52,-279.45 172.46,-265.37 177.79,-254.55"/>
<text text-anchor="middle" x="184.45" y="-269.4" font-family="Courier,monospace" font-size="12.00">أخت</text>
</g>
<!-- أبو بكر -->
<g id="node3" class="node">
<title>أبو بكر</title>
<ellipse fill="none" stroke="black" cx="218.95" cy="-381" rx="33.29" ry="18"/>
<text text-anchor="middle" x="218.95" y="-377.3" font-family="Times,serif" font-size="14.00">أبو بكر</text>
</g>
<!-- أبو بكر&#45;&#45;عائشة -->
<g id="edge2" class="edge">
<title>أبو بكر&#45;&#45;عائشة</title>
<path fill="none" stroke="green" d="M204.41,-364.59C193.17,-352.68 177.69,-336.28 166.46,-324.38"/>
<text text-anchor="middle" x="195.45" y="-340.8" font-family="Times,serif" font-size="14.00">بنت</text>
</g>
<!-- أبو بكر&#45;&#45;أسماء -->
<g id="edge3" class="edge">
<title>أبو بكر&#45;&#45;أسماء</title>
<path fill="none" stroke="green" d="M218.95,-362.75C218.95,-343.37 218.95,-315.5 218.95,-315.5 218.95,-315.5 203.17,-277.97 193.44,-254.81"/>
<text text-anchor="middle" x="228.45" y="-304.3" font-family="Times,serif" font-size="14.00">بنت</text>
</g>
<!-- الزبير -->
<g id="node5" class="node">
<title>الزبير</title>
<ellipse fill="none" stroke="black" cx="185.95" cy="-164" rx="28.7" ry="18"/>
<text text-anchor="middle" x="185.95" y="-160.3" font-family="Times,serif" font-size="14.00">الزبير</text>
</g>
<!-- أسماء&#45;&#45;الزبير -->
<g id="edge5" class="edge">
<title>أسماء&#45;&#45;الزبير</title>
<path fill="none" stroke="blue" d="M185.95,-218.81C185.95,-207.65 185.95,-193.16 185.95,-182.03"/>
<text text-anchor="middle" x="195.95" y="-196.8" font-family="Times,serif" font-size="14.00">زوج</text>
</g>
<!-- عروة -->
<g id="node6" class="node">
<title>عروة</title>
<ellipse fill="none" stroke="black" cx="140.95" cy="-91" rx="27" ry="18"/>
<text text-anchor="middle" x="140.95" y="-87.3" font-family="Times,serif" font-size="14.00">عروة</text>
</g>
<!-- أسماء&#45;&#45;عروة -->
<g id="edge6" class="edge">
<title>أسماء&#45;&#45;عروة</title>
<path fill="none" stroke="green" d="M175.98,-219.93C162.18,-196.3 138.95,-156.5 138.95,-156.5 138.95,-156.5 139.8,-128.63 140.39,-109.25"/>
<text text-anchor="middle" x="130.95" y="-160.3" font-family="Times,serif" font-size="14.00">ابن</text>
</g>
<!-- عبد الله -->
<g id="node7" class="node">
<title>عبد الله</title>
<ellipse fill="none" stroke="black" cx="228.95" cy="-91" rx="33.6" ry="18"/>
<text text-anchor="middle" x="228.95" y="-87.3" font-family="Times,serif" font-size="14.00">عبد الله</text>
</g>
<!-- أسماء&#45;&#45;عبد الله -->
<g id="edge8" class="edge">
<title>أسماء&#45;&#45;عبد الله</title>
<path fill="none" stroke="green" d="M201.35,-221.48C220.57,-202.11 250.95,-171.5 250.95,-171.5 250.95,-171.5 240.31,-132.58 233.83,-108.87"/>
<text text-anchor="middle" x="258.95" y="-160.3" font-family="Times,serif" font-size="14.00">ابن</text>
</g>
<!-- الزبير&#45;&#45;عروة -->
<g id="edge7" class="edge">
<title>الزبير&#45;&#45;عروة</title>
<path fill="none" stroke="green" d="M175.74,-146.89C168.37,-135.27 158.47,-119.65 151.12,-108.05"/>
<text text-anchor="middle" x="175.95" y="-123.8" font-family="Times,serif" font-size="14.00">ابن</text>
</g>
<!-- الزبير&#45;&#45;عبد الله -->
<g id="edge9" class="edge">
<title>الزبير&#45;&#45;عبد الله</title>
<path fill="none" stroke="green" d="M195.7,-146.89C202.64,-135.43 211.93,-120.09 218.93,-108.54"/>
<text text-anchor="middle" x="219.95" y="-123.8" font-family="Times,serif" font-size="14.00">ابن</text>
</g>
<!-- يحيى -->
<g id="node8" class="node">
<title>يحيى</title>
<ellipse fill="none" stroke="black" cx="27.95" cy="-18" rx="27.9" ry="18"/>
<text text-anchor="middle" x="27.95" y="-14.3" font-family="Times,serif" font-size="14.00">يحيى</text>
</g>
<!-- عروة&#45;&#45;يحيى -->
<g id="edge10" class="edge">
<title>عروة&#45;&#45;يحيى</title>
<path fill="none" stroke="green" d="M122.03,-78.12C101.3,-65.09 68.21,-44.3 47.3,-31.16"/>
<text text-anchor="middle" x="102.95" y="-50.8" font-family="Times,serif" font-size="14.00">ابن</text>
</g>
<!-- عثمان -->
<g id="node9" class="node">
<title>عثمان</title>
<ellipse fill="none" stroke="black" cx="102.95" cy="-18" rx="29.5" ry="18"/>
<text text-anchor="middle" x="102.95" y="-14.3" font-family="Times,serif" font-size="14.00">عثمان</text>
</g>
<!-- عروة&#45;&#45;عثمان -->
<g id="edge11" class="edge">
<title>عروة&#45;&#45;عثمان</title>
<path fill="none" stroke="green" d="M132.32,-73.89C126.19,-62.43 117.98,-47.09 111.8,-35.54"/>
<text text-anchor="middle" x="133.95" y="-50.8" font-family="Times,serif" font-size="14.00">ابن</text>
</g>
<!-- هشام -->
<g id="node10" class="node">
<title>هشام</title>
<ellipse fill="none" stroke="black" cx="178.95" cy="-18" rx="28.7" ry="18"/>
<text text-anchor="middle" x="178.95" y="-14.3" font-family="Times,serif" font-size="14.00">هشام</text>
</g>
<!-- عروة&#45;&#45;هشام -->
<g id="edge12" class="edge">
<title>عروة&#45;&#45;هشام</title>
<path fill="none" stroke="green" d="M149.57,-73.89C155.7,-62.43 163.91,-47.09 170.1,-35.54"/>
<text text-anchor="middle" x="171.95" y="-50.8" font-family="Times,serif" font-size="14.00">ابن</text>
</g>
<!-- محمّد -->
<g id="node11" class="node">
<title>محمّد</title>
<ellipse fill="none" stroke="black" cx="253.95" cy="-18" rx="27.9" ry="18"/>
<text text-anchor="middle" x="253.95" y="-14.3" font-family="Times,serif" font-size="14.00">محمّد</text>
</g>
<!-- عروة&#45;&#45;محمّد -->
<g id="edge13" class="edge">
<title>عروة&#45;&#45;محمّد</title>
<path fill="none" stroke="green" d="M159.86,-78.12C180.59,-65.09 213.69,-44.3 234.59,-31.16"/>
<text text-anchor="middle" x="215.95" y="-50.8" font-family="Times,serif" font-size="14.00">ابن</text>
</g>
</g>
</svg>
